<svg width="18" height="18" viewBox="0 0 18 18" fill="none" xmlns="http://www.w3.org/2000/svg">
<path d="M7.82268 5.53629C7.82273 5.36389 7.86722 5.1944 7.95186 5.0442C8.03649 4.894 8.15842 4.76815 8.30586 4.6788C8.45331 4.58946 8.6213 4.53962 8.79362 4.53412C8.96594 4.52861 9.13676 4.56762 9.28961 4.64738C9.44246 4.72713 9.57217 4.84494 9.66622 4.98944C9.76027 5.13393 9.81549 5.30023 9.82654 5.47228C9.83759 5.64433 9.8041 5.81632 9.72931 5.97166C9.65452 6.127 9.54095 6.26043 9.39956 6.35909C9.14882 6.53554 8.84422 6.77049 8.60091 7.06487C8.35295 7.3639 8.12914 7.76973 8.12914 8.27214C8.12914 8.45686 8.20253 8.63402 8.33314 8.76464C8.46376 8.89526 8.64092 8.96864 8.82564 8.96864C9.01037 8.96864 9.18752 8.89526 9.31814 8.76464C9.44876 8.63402 9.52214 8.45686 9.52214 8.27214C9.52214 8.20342 9.55 8.10126 9.67258 7.95361C9.79795 7.80316 9.9809 7.65272 10.1982 7.50042C10.5358 7.26449 10.8068 6.94554 10.9852 6.57434C11.1636 6.20314 11.2433 5.79223 11.2166 5.38127C11.1899 4.9703 11.0577 4.57315 10.8328 4.22815C10.6079 3.88315 10.2978 3.60194 9.9326 3.41167C9.56736 3.2214 9.15924 3.12849 8.74762 3.1419C8.33601 3.15531 7.9348 3.27459 7.58272 3.48823C7.23063 3.70187 6.93956 4.00266 6.73759 4.36157C6.53562 4.72048 6.42958 5.12539 6.42969 5.53722C6.42969 5.72194 6.50307 5.8991 6.63369 6.02972C6.76431 6.16034 6.94146 6.23372 7.12619 6.23372C7.31091 6.23372 7.48807 6.16034 7.61868 6.02972C7.7493 5.8991 7.82268 5.72194 7.82268 5.53722M8.82564 9.44133C8.64092 9.44133 8.46376 9.51471 8.33314 9.64533C8.20253 9.77595 8.12914 9.9531 8.12914 10.1378C8.12914 10.3225 8.20253 10.4997 8.33314 10.6303C8.46376 10.7609 8.64092 10.8343 8.82564 10.8343C9.01037 10.8343 9.18752 10.7609 9.31814 10.6303C9.44876 10.4997 9.52214 10.3225 9.52214 10.1378C9.52214 9.9531 9.44876 9.77595 9.31814 9.64533C9.18752 9.51471 9.01037 9.44133 8.82564 9.44133Z" fill="black"/>
<path fill-rule="evenodd" clip-rule="evenodd" d="M2.0895 0C1.53533 0 1.00386 0.220143 0.611999 0.611999C0.220143 1.00386 0 1.53533 0 2.0895V16.6862C3.04655e-06 16.8207 0.0389217 16.9523 0.112058 17.0651C0.185195 17.1779 0.289423 17.2672 0.412161 17.322C0.5349 17.3769 0.670902 17.3951 0.80375 17.3744C0.936599 17.3537 1.06062 17.295 1.16083 17.2054L4.76869 13.9745H15.5551C16.1093 13.9745 16.6408 13.7544 17.0326 13.3625C17.4245 12.9707 17.6446 12.4392 17.6446 11.8851V2.0895C17.6446 1.53533 17.4245 1.00386 17.0326 0.611999C16.6408 0.220143 16.1093 0 15.5551 0H2.0895ZM1.393 2.0895C1.393 1.90477 1.46638 1.72762 1.597 1.597C1.72762 1.46638 1.90477 1.393 2.0895 1.393H15.5551C15.7399 1.393 15.917 1.46638 16.0476 1.597C16.1783 1.72762 16.2516 1.90477 16.2516 2.0895V11.8851C16.2516 12.0698 16.1783 12.2469 16.0476 12.3776C15.917 12.5082 15.7399 12.5815 15.5551 12.5815H4.50217C4.33072 12.5818 4.16539 12.6453 4.03783 12.7599L1.393 15.1279V2.0895Z" fill="black"/>
</svg>
